<?xml version="1.0" encoding="utf-8"?>
<!-- Generator: Adobe Illustrator 23.0.1, SVG Export Plug-In . SVG Version: 6.00 Build 0)  -->
<svg version="1.1" id="Layer_1" xmlns="http://www.w3.org/2000/svg" xmlns:xlink="http://www.w3.org/1999/xlink" x="0px" y="0px"
	 viewBox="0 0 223.9 70" style="enable-background:new 0 0 223.9 70;" xml:space="preserve">
<style type="text/css">
	.st0{fill:#262424;}
	.st1{fill:#BD353B;}
</style>
<title>Senja Maskin as</title>
<path class="st0" d="M10.9,27.2c0.9,0.1,1.7,0.4,2.5,0.7c1.2,0.5,2.2,1.6,2.5,2.9c0.2,0.7,0.3,1.5,0.3,2.3v0.5
	c0,0.9-0.1,1.8-0.4,2.6c-0.3,0.7-0.7,1.4-1.4,1.8c-0.7,0.6-1.6,0.9-2.5,1.1c-1.3,0.3-2.6,0.4-3.9,0.4H5.1c-1.2,0-2.7,0-4.6-0.1
	L1.1,36h2.1H5h3c0.7,0,1.4,0,2.1-0.1c0.4-0.1,0.9-0.2,1.2-0.4s0.5-0.5,0.6-0.8c0.1-0.4,0.2-0.8,0.2-1.3c0-0.4,0-0.8-0.1-1.1
	c0-0.3-0.2-0.6-0.4-0.8c-0.2-0.2-0.5-0.4-0.8-0.4c-0.4-0.2-0.9-0.3-1.4-0.3l-3.6-0.7C4.9,30,4,29.7,3.2,29.3C2.6,29,2,28.6,1.6,28.1
	s-0.7-1-0.8-1.7c-0.2-0.7-0.2-1.4-0.2-2.2v-0.5c0-0.8,0.1-1.6,0.4-2.4c0.3-0.7,0.7-1.3,1.3-1.8C3,19,3.9,18.6,4.7,18.4
	C5.9,18.1,7.2,18,8.4,18h4.8h2.2l-0.7,3.4c-1.5,0-2.8-0.1-3.8-0.1H8.2c-0.6,0-1.2,0-1.9,0.1c-0.4,0.1-0.8,0.2-1.1,0.4
	c-0.3,0.2-0.5,0.4-0.6,0.8s-0.2,0.8-0.2,1.2c0,0.3,0,0.7,0.1,1s0.2,0.5,0.4,0.7c0.2,0.2,0.5,0.4,0.8,0.5c0.4,0.2,0.9,0.3,1.3,0.3
	L10.9,27.2z"/>
<path class="st0" d="M21.5,33.1c0,0.6,0,1.2,0.1,1.8c0.1,0.8,0.7,1.5,1.5,1.6c0.6,0.1,1.1,0.2,1.7,0.2h2.4c0.9,0,2,0,3.3-0.1l-0.6,3
	h-1.5h-1.3h-2.5c-1.2,0-2.4-0.1-3.5-0.5c-0.8-0.3-1.6-0.7-2.2-1.4c-0.5-0.6-0.9-1.4-1.1-2.2c-0.2-1-0.3-2-0.3-3v-1.6
	c0-1.1,0.1-2.1,0.3-3.2c0.2-0.9,0.6-1.6,1.1-2.3c0.6-0.7,1.4-1.1,2.2-1.4c1.1-0.3,2.3-0.5,3.5-0.5c1.1,0,2.2,0.1,3.3,0.4
	c0.8,0.2,1.5,0.7,2.1,1.2c0.5,0.5,0.9,1.1,1.1,1.8c0.2,0.8,0.3,1.5,0.3,2.3v0.5c0,0.6,0,1.1-0.1,1.7c-0.1,0.4-0.2,0.7-0.4,1
	c-0.2,0.2-0.4,0.4-0.7,0.5C29.8,33,29.5,33,29.1,33L21.5,33.1z M24.8,26.4c-0.6,0-1.1,0-1.6,0.2c-0.4,0.1-0.7,0.3-1,0.6
	c-0.3,0.3-0.4,0.7-0.5,1.2c-0.1,0.6-0.1,1.2-0.1,1.9H28v-0.7c0-0.5,0-1-0.1-1.5c-0.1-0.4-0.2-0.7-0.5-1s-0.6-0.4-1-0.5
	C25.8,26.5,25.3,26.4,24.8,26.4z"/>
<path class="st0" d="M33.4,39.5V29c0-0.9,0.1-1.7,0.4-2.5c0.3-0.7,0.7-1.3,1.3-1.7c0.7-0.5,1.4-0.8,2.2-0.9c1-0.2,2.1-0.3,3.2-0.3
	c2.5,0,4.3,0.4,5.4,1.2s1.7,2.2,1.7,4.2v10.6h-3.9V29.4c0-0.4,0-0.8-0.1-1.2c-0.1-0.3-0.2-0.6-0.4-0.8c-0.3-0.3-0.6-0.4-0.9-0.5
	c-1.2-0.2-2.3-0.2-3.5,0c-0.4,0.1-0.7,0.2-1,0.5c-0.2,0.2-0.4,0.5-0.4,0.8c-0.1,0.4-0.1,0.8-0.1,1.2v10.1H33.4z"/>
<path class="st0" d="M45.8,41.8h0.9h0.9c0.4,0,0.7,0,1.1-0.1c0.3,0,0.5-0.2,0.7-0.4s0.3-0.5,0.4-0.8c0.1-0.5,0.1-0.9,0.1-1.4V24h3.9
	v15.2c0,0.9-0.1,1.8-0.3,2.7c-0.2,0.7-0.5,1.2-1,1.7s-1.1,0.8-1.7,0.9c-0.9,0.2-1.7,0.3-2.6,0.3h-1.6h-1.3L45.8,41.8z M54.1,19.6
	c0.1,0.6-0.1,1.2-0.5,1.6c-1.1,0.7-2.5,0.7-3.6,0c-0.4-0.4-0.6-1-0.5-1.6c0-0.6,0.2-1.1,0.5-1.6c1.1-0.7,2.5-0.7,3.6,0
	C54,18.5,54.2,19,54.1,19.6z"/>
<path class="st0" d="M69.4,36.7c0.1,0.8-0.2,1.6-0.7,2.2c-0.7,0.5-1.6,0.7-2.5,0.6h-4.9c-2.1,0-3.6-0.4-4.5-1.2
	c-0.9-0.9-1.4-2.2-1.3-3.4v-0.6c-0.1-1.4,0.4-2.7,1.5-3.6c1.4-0.8,3-1.2,4.6-1.1c0.9,0,1.7,0.1,2.6,0.3c0.5,0.1,1.1,0.3,1.5,0.6V30
	c0-0.5,0-0.9-0.2-1.3c-0.1-0.3-0.3-0.6-0.6-0.8c-0.3-0.2-0.7-0.4-1.1-0.4c-0.6-0.1-1.1-0.1-1.7-0.1h-2.6h-1.4h-1.3l0.6-3.1h2.1h2.7
	c2.4,0,4.2,0.4,5.3,1.3c1.2,1,1.8,2.5,1.7,4v7.1H69.4z M65.6,36.7v-2.4c0-0.3,0-0.6-0.1-0.9c-0.1-0.2-0.2-0.5-0.4-0.6
	c-0.3-0.2-0.6-0.3-0.9-0.3c-0.5-0.1-1.1-0.1-1.6-0.1h-0.4c-0.8-0.1-1.6,0.1-2.3,0.4c-0.4,0.4-0.7,0.9-0.6,1.5v0.6
	c0,0.5,0.2,1.1,0.6,1.4c0.6,0.4,1.3,0.5,2.1,0.5h3.6V36.7z"/>
<path class="st0" d="M95.2,39.5V24.3l-4.8,9.2h-3.3l-4.9-9v15h-4V18.2h4.4l6.2,11.6l5.9-11.6h4.4v21.3H95.2z"/>
<path class="st0" d="M115.2,36.7c0.1,0.8-0.2,1.6-0.7,2.2c-0.7,0.5-1.6,0.7-2.5,0.6h-4.9c-2.1,0-3.6-0.4-4.5-1.2
	c-0.9-0.9-1.4-2.2-1.3-3.4v-0.6c-0.1-1.4,0.4-2.7,1.5-3.6c1.4-0.8,3-1.2,4.6-1.1c0.9,0,1.7,0.1,2.6,0.3c0.5,0.1,1.1,0.3,1.5,0.6V30
	c0-0.5,0-0.9-0.2-1.3c-0.1-0.3-0.3-0.6-0.6-0.8c-0.3-0.2-0.7-0.4-1.1-0.4c-0.6-0.1-1.1-0.1-1.7-0.1h-2.6H104h-1.2l0.6-3.1h2.1h2.8
	c2.4,0,4.2,0.4,5.3,1.3c1.2,1,1.8,2.5,1.7,4v7.1H115.2z M111.5,36.7v-2.4c0-0.3,0-0.6-0.1-0.9c-0.1-0.2-0.2-0.5-0.4-0.6
	c-0.3-0.2-0.6-0.3-0.9-0.3c-0.5-0.1-1.1-0.1-1.6-0.1H108c-0.8-0.1-1.6,0.1-2.3,0.4c-0.4,0.4-0.7,0.9-0.6,1.5v0.6
	c0,0.5,0.2,1.1,0.6,1.4c0.6,0.4,1.3,0.5,2,0.5h3.8V36.7z"/>
<path class="st0" d="M125.8,30.1c0.8,0,1.5,0.2,2.2,0.5c0.5,0.2,1,0.6,1.4,1c0.3,0.4,0.6,0.9,0.7,1.4c0.1,0.5,0.2,1,0.2,1.5v0.4
	c0.1,1.3-0.5,2.6-1.6,3.5c-1.5,0.9-3.2,1.3-4.9,1.2h-3.1h-1.9h-1.9l0.6-3.2h3.2h3.1c0.7,0.1,1.4-0.1,2-0.3c0.4-0.3,0.6-0.7,0.6-1.2
	c0-0.4-0.1-0.7-0.4-1c-0.4-0.3-1-0.5-1.5-0.5l-3.3-0.3c-0.7,0-1.4-0.2-2-0.5c-0.5-0.2-1-0.6-1.3-1c-0.3-0.4-0.6-0.8-0.8-1.3
	c-0.1-0.5-0.2-1-0.2-1.5v-0.5c-0.1-1.3,0.5-2.5,1.4-3.3c1-0.8,2.6-1.2,4.9-1.2h2.8h3.8l-0.6,3.2h-2.3h-4c-0.6,0-1.2,0-1.8,0.3
	c-0.4,0.2-0.6,0.6-0.5,1c0,0.4,0.1,0.7,0.3,1c0.5,0.3,1,0.4,1.6,0.4L125.8,30.1z"/>
<path class="st0" d="M136,29.9l5.9-5.9h4.7l-7.1,6.9l7.8,8.6h-4.8l-6.4-7.2v7.2h-3.9V17.3h3.9L136,29.9L136,29.9z"/>
<path class="st0" d="M152.1,19.6c0.1,0.6-0.1,1.2-0.5,1.6c-1.1,0.7-2.5,0.7-3.6,0c-0.4-0.4-0.6-1-0.5-1.6c-0.1-0.6,0.1-1.2,0.5-1.6
	c1.1-0.7,2.5-0.7,3.6,0C152,18.5,152.2,19,152.1,19.6z M147.9,24h3.9v15.5h-3.9V24z"/>
<path class="st0" d="M154,39.5V29c0-0.9,0.1-1.7,0.4-2.5c0.3-0.7,0.7-1.3,1.3-1.7c0.7-0.5,1.4-0.8,2.2-0.9c1-0.2,2.1-0.3,3.2-0.3
	c2.5,0,4.3,0.4,5.4,1.2c1.1,0.8,1.7,2.2,1.7,4.2v10.6h-3.9V29.4c0-0.4,0-0.8-0.1-1.2c-0.1-0.3-0.2-0.6-0.4-0.8
	c-0.3-0.3-0.6-0.4-1-0.5c-1.2-0.2-2.3-0.2-3.5,0c-0.4,0.1-0.7,0.2-1,0.5c-0.2,0.2-0.4,0.5-0.4,0.8c-0.1,0.4-0.1,0.8-0.1,1.2v10.1
	H154z"/>
<path class="st0" d="M189.7,33.9h-8.2l-2,5.6h-4l8-21.3h4.5l7.9,21.3h-4.2L189.7,33.9z M182.5,30.7h6.1l-3-8.6L182.5,30.7z"/>
<path class="st0" d="M206.7,27.2c0.9,0.1,1.7,0.4,2.5,0.7c0.6,0.3,1.2,0.7,1.6,1.3c0.4,0.5,0.7,1.1,0.9,1.7c0.2,0.7,0.3,1.5,0.3,2.3
	v0.5c0,0.9-0.1,1.8-0.4,2.6c-0.3,0.7-0.7,1.4-1.4,1.8c-0.8,0.5-1.6,0.9-2.5,1.1c-1.3,0.3-2.6,0.4-3.9,0.4h-2.9c-1.2,0-2.7,0-4.6-0.1
	l0.6-3.4h2.1h1.8h3c0.7,0,1.3,0,2-0.1c0.4,0,0.9-0.2,1.2-0.4s0.5-0.5,0.6-0.8c0.1-0.4,0.2-0.8,0.2-1.3c0-0.4,0-0.8-0.1-1.1
	s-0.2-0.6-0.4-0.8c-0.2-0.2-0.5-0.4-0.8-0.5c-0.5-0.2-0.9-0.3-1.4-0.3l-3.6-0.6c-0.9-0.1-1.8-0.4-2.6-0.8c-0.6-0.3-1.2-0.7-1.6-1.2
	c-0.4-0.5-0.7-1.1-0.8-1.7c-0.2-0.7-0.2-1.4-0.2-2.2v-0.5c0-0.8,0.1-1.6,0.4-2.4c0.3-0.7,0.7-1.3,1.3-1.8c0.7-0.5,1.6-0.9,2.4-1.1
	c1.2-0.3,2.5-0.4,3.7-0.4h4.8h2.2l-0.6,3.4c-1.5,0-2.8-0.1-3.8-0.1h-2.9c-0.6,0-1.2,0-1.9,0.1c-0.4,0.1-0.8,0.2-1.1,0.4
	c-0.3,0.2-0.5,0.4-0.6,0.8s-0.2,0.8-0.2,1.2c0,0.3,0,0.7,0.1,1s0.2,0.5,0.4,0.7s0.5,0.4,0.8,0.5c0.4,0.1,0.9,0.3,1.3,0.3L206.7,27.2
	z"/>
<path class="st1" d="M167.2,66.5c0.2,0.1,0.3,0,0.3-0.2c0.9-2.6,2.2-5.5,2.7-6.9c0.4-0.9,0.4-1.5,0.2-1.9c-0.1-0.2-0.2-0.2-0.3,0
	c-1.3,2.5-2.3,5.1-3.1,7.7c-0.2-2-0.2-3.8-0.3-5c0-1-0.2-1.4-0.6-1.7c-0.1-0.1-0.2-0.1-0.2,0.1c-0.1,2.1,0,4.2,0.3,6.2
	C166.4,65.9,166.7,66.2,167.2,66.5z"/>
<path class="st1" d="M171.8,65.3c0.8-0.3,1.3-0.9,1.5-1.8c0.1-0.3,0-0.6-0.1-0.8c-0.1-0.1-0.2-0.1-0.2,0.1c-0.1,0.9-0.6,1.9-1.1,2.1
	s-0.5-0.3-0.4-1.1s0.4-1.6,0.5-2.2c0.1-0.5,0-1-0.3-1.3c-0.1-0.1-0.2,0-0.3,0.2c-0.4,1.1-0.7,2.2-0.8,3.4
	C170.4,64.8,170.9,65.5,171.8,65.3z"/>
<path class="st1" d="M172.4,59.8c0.1-0.3,0.1-0.6-0.1-0.8c-0.2-0.3-0.6-0.3-0.8-0.1c-0.2,0.3-0.1,0.7,0.2,0.9
	c0.1,0.2,0.4,0.2,0.6,0.1C172.3,59.9,172.4,59.9,172.4,59.8z"/>
<path class="st1" d="M189.1,60.8c0.7-0.2,1.2-0.8,1.4-1.4c0.2,0.5,0.8,0.8,1.3,0.7c0.7-0.2,1.2-0.8,1.5-1.5c0.4,0.6,1.1,0.8,1.8,0.6
	c1.5-0.4,2.4-2.3,2.8-4.7c0.5-0.2,1-0.4,1.4-0.8c-0.5,0.8-0.8,1.8-0.9,2.7c0,1.1,0.5,1.8,1.5,1.6c0.8-0.2,1.3-0.9,1.4-1.7
	c0.1-0.3,0-0.6-0.1-0.8c-0.1-0.1-0.1,0-0.2,0.1c-0.1,1-0.6,2-1.1,2.1c-0.4,0.1-0.6-0.4-0.6-1.1c0.1-0.9,0.4-1.7,0.9-2.5
	c0.3-0.5-0.2-1-0.5-1.2c-0.1-0.1-0.2,0-0.3,0.1c-0.3,0.4-0.7,0.7-1.2,0.9c0.1-0.9,0-1.7-0.4-1.5s-1.3,2.1-0.2,2.2
	c-0.3,1.7-1.1,4-2.5,4.3c-0.6,0.1-1.1-0.6-1-1.8c0.7,0.4,1.7,0.1,2-0.7c0.1-0.1,0.1-0.2,0.1-0.3c0.3-0.5,0.3-1.2,0-1.7
	c-0.3-0.2-0.6-0.4-0.9-0.4c-0.7-0.2-1.8,0.8-2.1,2.5c-0.1,0.5-0.1,1,0,1.4c-0.2,0.9-0.6,1.7-1.1,1.8s-0.8-0.6-0.7-1.6
	s0.6-2.5,0.9-3.5l0.9-0.2c0.2,0,0.2-0.1,0.1-0.3c-0.2-0.2-0.6-0.3-0.9-0.2c0.1-0.5,0.1-1-0.2-1.4c-0.1-0.1-0.2-0.1-0.3,0.1
	c-0.2,0.6-0.4,1.1-0.6,1.7c-0.5,0.2-1.1,0.4-1.8,0.6c0.2-0.5,0.1-1-0.2-1.5c-0.1-0.1-0.2-0.1-0.3,0.1s-0.3,1-0.5,1.7
	c-0.4,0.1-0.7,0.2-1,0.3s-0.3,0.2-0.1,0.3c0.3,0.2,0.6,0.2,0.9,0.2c-0.3,1-0.5,1.9-0.6,2.9C187.4,60.2,188.2,61,189.1,60.8z
	 M193.9,56.6c0.3-1.3,1.1-2.3,1.4-2.1s0.1,0.8-0.2,1.4s-0.6,1.2-1.3,1C193.9,56.7,193.9,56.7,193.9,56.6z M188.4,58.8
	c0.2-1.1,0.5-2.2,0.8-3.3c0.5-0.2,1.1-0.4,1.7-0.6c-0.3,1.2-0.6,2.5-0.7,3.3c-0.2,1-0.6,2.1-1.2,2.2S188.2,59.8,188.4,58.8z"/>
<path class="st1" d="M207.6,56.6c0.9-0.6,1.7-1.5,2.1-2.5v-0.2c0.3,0.8,1.2,1.3,2,1l0,0c0.9-0.3,1.7-1,2-1.9c0-0.1,0.1-0.2,0.1-0.4
	c0.1,1.1,0.7,1.5,1.5,1.3c0.8-0.3,1.4-1,1.7-1.8c0.2,0.9,0.7,1.1,1.4,1c0.9-0.3,1.5-1,1.8-1.9c0.1-0.3,0-0.5-0.1-0.8
	c-0.1-0.2-0.2-0.1-0.3,0.1c-0.2,1.1-0.9,2.2-1.5,2.3s-0.7-1-0.5-2.3c1.1-1.2,1.8-2.8,1.9-4.4c0.1-0.5-0.2-1-0.6-1.3
	c-0.2-0.1-0.4,0-0.5,0.2c-1,1.9-1.6,4-1.6,6.2c-0.1-0.1-0.2,0-0.2,0.1c-0.2,1.1-0.9,2.2-1.5,2.3s-0.7-1-0.5-2.3
	c1.1-1.2,1.8-2.8,1.9-4.4c0.1-0.5-0.2-1-0.6-1.3c-0.2-0.1-0.4-0.1-0.5,0.2c-1.1,2-1.6,4.2-1.6,6.4v-0.1c-0.1-0.1-0.2-0.1-0.2,0
	c-0.3,1-1,2.2-2,2.4c-0.7,0.1-1.1-0.6-1-1.8c0.7,0.4,1.7,0.1,2.1-0.6c0-0.1,0.1-0.2,0.1-0.3c0.4-0.5,0.4-1.2,0-1.8
	c-0.3-0.2-0.6-0.4-0.9-0.4c-0.7-0.2-1.8,0.8-2.2,2.5c-0.1,0.3-0.1,0.7-0.1,1l-0.1,0.1c-0.3,1-1,2-1.8,2.7c0.2-1.3,0.7-3.3,0.8-4
	c0.1-0.5,0-1-0.3-1.3c-0.1-0.1-0.2,0-0.3,0.1c-0.2,0.7-0.4,1.3-0.5,2c-0.1,0.8-0.6,1.6-1.4,1.9c-0.3,0.1-0.7,0-0.9-0.3
	c1.2-1.4,1.9-3.2,2-5c0.1-0.5-0.2-1-0.6-1.3c-0.2-0.1-0.3,0-0.5,0.2c-1.3,1.9-2.2,7.2-2.3,9.4c-0.1,0.5,0.1,1,0.4,1.3
	c0.1,0.1,0.2,0,0.2-0.1c0.2-1.5,0.4-3,0.7-4.2c0.3,0.3,0.7,0.4,1.1,0.3c0.4-0.1,0.7-0.3,0.9-0.5c-0.1,0.7-0.2,1.4-0.3,2.1
	c-1,0.6-1.7,1.6-2,2.7c-6.5,1.6-13.6,3.4-19.6,5.1c0.2-0.8,0.3-1.7,0.5-2.6c0.9-0.5,1.5-1.3,1.9-2.2c0.1-0.2,0.1-0.5,0-0.8
	c-0.1-0.1-0.2-0.1-0.2,0c-0.4,0.9-0.9,1.8-1.7,2.4c0.2-1.3,0.6-3,0.8-3.8c0.2-0.5,0-1-0.3-1.4c-0.1-0.1-0.2,0-0.3,0.2
	c-0.3,0.7-0.5,2-0.8,3c-0.4,1.2-0.8,2.2-1.2,2.3c-0.3,0-0.4-0.4-0.3-1c0.1-0.7,0.3-1.3,0.5-2c0.3-0.8,0.2-1.4-0.2-1.7
	c-0.1-0.1-0.2-0.1-0.3,0.1c-0.4,1-0.6,2-0.8,3c-0.1,0-0.1,0.1-0.1,0.2c-0.2,1.1-0.9,2.2-1.5,2.3s-0.7-1-0.5-2.3
	c1.1-1.2,1.8-2.8,1.9-4.4c0.1-0.5-0.2-1-0.6-1.3c-0.2-0.1-0.4,0-0.5,0.2c-1,1.9-1.6,4.1-1.6,6.3l0,0c-0.1-0.2-0.2-0.1-0.2,0
	c-0.1,0.7-0.4,1.3-0.9,1.9c0-0.2,0-0.3-0.1-0.4c-0.2-0.8-0.5-1.2-1-1.2c0.3-1.5,0.8-3.1,1.1-4c0.3-0.6,0.3-1.3-0.1-1.9
	c-0.1-0.1-0.2-0.1-0.3,0.1c-0.8,2.4-2.4,7.8-2.1,10.6c0,0.4,0.2,0.8,0.4,1.1c-4.2,1.2-7.4,2.1-9.3,2.7l-0.5,0.2l0,0l10-2.7
	c0.1,0.1,0.3,0.2,0.5,0.3c0.5,0.2,0.7,0.1,1-0.5c0-0.1,0.1-0.2,0.1-0.2l3.6-1l0.8-0.2c0.1,0.4,0.3,0.8,0.6,1
	c0.2,0.2,0.5,0.3,0.8,0.1c0.5-0.4,0.8-1,0.9-1.7l19.7-5.2c0,0.5,0.2,1.1,0.7,1.4c0.2,0.2,0.5,0.2,0.7,0l0,0c0.6-0.6,0.9-1.3,1-2.1
	l2.3-0.6l14.2-3.5l0.4-0.3c0,0-7.4,1.7-16.8,4C207.3,58.1,207.4,57.3,207.6,56.6z M218,49.3c0.4-1.8,1-3.4,1.2-3.3s0,2.2-1.3,4
	C217.9,49.8,217.9,49.5,218,49.3z M214.9,50.1c0.4-1.8,1-3.4,1.2-3.3s0,2.2-1.3,4C214.8,50.6,214.8,50.3,214.9,50.1L214.9,50.1z
	 M210.6,52.2c0.3-1.3,1.1-2.3,1.4-2.2s0.1,0.8-0.2,1.4s-0.6,1.2-1.3,1C210.6,52.4,210.6,52.3,210.6,52.2z M205.5,52.6
	c0.2-1.2,0.6-2.3,1.2-3.3c0.2,0.1,0,2.6-1.4,4.5C205.3,53.4,205.4,53,205.5,52.6L205.5,52.6z M180.7,59c0.4-1.8,1-3.4,1.2-3.3
	s0,2.2-1.3,4C180.6,59.4,180.6,59.2,180.7,59L180.7,59z M184,64.8l-0.8,0.2c0.2-0.9,0.6-1.7,1.2-2.3C184.4,63.4,184.2,64.2,184,64.8
	L184,64.8z M177.3,61.6c0.1-0.1,0.3,0.3,0.4,0.7c0.1,0.3,0.1,0.6,0.1,0.9c-0.2,0-0.4-0.2-0.5-0.6S177.2,61.7,177.3,61.6L177.3,61.6z
	 M176.9,63.4c0.2,0.2,0.6,0.4,0.9,0.3c0,1.1-0.1,2.1-0.5,3.1l-0.5,0.1C176.7,65.7,176.7,64.6,176.9,63.4L176.9,63.4z M177.1,67.1
	L177.1,67.1L177.1,67.1z M179.1,66.2l-0.9,0.3c0.3-1,0.4-2.1,0.3-3.1c0.6-0.4,1-1,1.1-1.7v-0.1c0.2,1,0.7,1.3,1.5,1.2
	c0.6-0.2,1.2-0.7,1.5-1.3c0.1,0.5,0.5,0.8,1,0.7l0,0c0.5-0.2,0.9-0.5,1.2-1c-0.1,0.3-0.1,0.7-0.1,1c-1.1,0.7-1.8,1.8-2,3v0.1
	C181.3,65.6,180.2,66,179.1,66.2L179.1,66.2z M183.3,66.1c-0.1-0.1-0.1-0.3-0.1-0.7l0.7-0.2C183.6,65.9,183.4,66.2,183.3,66.1
	L183.3,66.1z M206.6,57.3c-0.1,0.6-0.2,1.2-0.4,1.8l-0.8,0.2C205.6,58.5,206,57.8,206.6,57.3L206.6,57.3z M205.4,60.7
	c-0.1-0.1-0.2-0.5-0.1-1.1l0.8-0.2C205.9,60.2,205.6,60.8,205.4,60.7L205.4,60.7z"/>
<path class="st1" d="M209,50.3c0.1-0.3,0.1-0.6-0.1-0.8c-0.2-0.3-0.6-0.3-0.8-0.1c-0.2,0.3-0.1,0.7,0.2,0.9
	C208.5,50.5,208.9,50.5,209,50.3z"/>
<path class="st1" d="M223,43.8c-0.1-0.2-0.2-0.1-0.3,0.1c-0.6,1.9-1.1,3.8-1.3,5.8c-0.1,0.8,0.1,1.2,0.4,1.3s0.2,0,0.2-0.1
	c0.3-1.5,0.8-3.7,1.1-5.1C223.4,45.1,223.3,44.4,223,43.8z"/>
<path class="st1" d="M221.1,52.2c0.2,0.2,0.6,0.2,0.7,0c0.1-0.3,0.1-0.6-0.1-0.8c-0.2-0.3-0.6-0.3-0.8-0.1
	C220.8,51.7,220.9,52,221.1,52.2z"/>
</svg>
