<svg id="Layer_1" data-name="Layer 1" xmlns="http://www.w3.org/2000/svg" viewBox="0 0 223.94 52.64"><defs><style>.cls-1,.cls-2{fill:#262424;}.cls-2{stroke:#5365ac;stroke-miterlimit:10;stroke-width:0.05px;}.cls-3{fill:#872125;}</style></defs><title>Senja Maskin as</title><path class="cls-1" d="M136.06,48a10.53,10.53,0,0,1,2.47.73A4.17,4.17,0,0,1,141,51.65a8.54,8.54,0,0,1,.27,2.26v.48a7.91,7.91,0,0,1-.4,2.63,4.2,4.2,0,0,1-1.36,1.85A6.52,6.52,0,0,1,137,60a17.79,17.79,0,0,1-3.9.36h-2.87c-1.17,0-2.7,0-4.58-.06l.62-3.37,2.14,0,1.76,0h3a14.19,14.19,0,0,0,2.05-.12,3.22,3.22,0,0,0,1.25-.42,1.48,1.48,0,0,0,.63-.79,4.09,4.09,0,0,0,.16-1.27,6,6,0,0,0-.09-1.12,1.54,1.54,0,0,0-.37-.77A2,2,0,0,0,136,52a7.91,7.91,0,0,0-1.38-.34L131,51a10.24,10.24,0,0,1-2.64-.75,4.65,4.65,0,0,1-1.63-1.17,3.87,3.87,0,0,1-.82-1.66,9.57,9.57,0,0,1-.22-2.18v-.54a6.55,6.55,0,0,1,.41-2.41,4.22,4.22,0,0,1,1.35-1.81,6.7,6.7,0,0,1,2.43-1.13,14.51,14.51,0,0,1,3.71-.4h4.83l2.24.05L140,42.4c-1.5,0-2.75-.06-3.78-.06h-2.88a11.66,11.66,0,0,0-1.85.12,2.88,2.88,0,0,0-1.13.4,1.46,1.46,0,0,0-.58.76,3.7,3.7,0,0,0-.17,1.19,5.13,5.13,0,0,0,.09,1,1.46,1.46,0,0,0,.36.71,2,2,0,0,0,.78.5,6.17,6.17,0,0,0,1.31.31Z" transform="translate(-125.14 -38.1)"/><path class="cls-1" d="M146.68,53.82a10.45,10.45,0,0,0,.12,1.76,1.81,1.81,0,0,0,1.52,1.62,8,8,0,0,0,1.73.15h2.39c.89,0,2,0,3.31-.06l-.6,3-1.49,0-1.27,0h-2.52a10.76,10.76,0,0,1-3.49-.48,5,5,0,0,1-2.16-1.37,5.06,5.06,0,0,1-1.11-2.19,12.72,12.72,0,0,1-.31-3V51.65a13.66,13.66,0,0,1,.33-3.17,5.36,5.36,0,0,1,1.15-2.31,5.06,5.06,0,0,1,2.2-1.42,11.24,11.24,0,0,1,3.51-.47,10.49,10.49,0,0,1,3.27.43,5.39,5.39,0,0,1,2.09,1.21,4.33,4.33,0,0,1,1.11,1.83,7.79,7.79,0,0,1,.33,2.32v.5a9.34,9.34,0,0,1-.12,1.66,2.25,2.25,0,0,1-.4,1,1.35,1.35,0,0,1-.73.48,4.91,4.91,0,0,1-1.1.11Zm3.22-6.62a6.59,6.59,0,0,0-1.64.17,1.72,1.72,0,0,0-1,.59,2.41,2.41,0,0,0-.48,1.17,11.71,11.71,0,0,0-.12,1.86h6.41V50.3a6.13,6.13,0,0,0-.15-1.46,2,2,0,0,0-.5-1,2,2,0,0,0-1-.52A6.15,6.15,0,0,0,149.9,47.2Z" transform="translate(-125.14 -38.1)"/><path class="cls-1" d="M158.58,60.27V49.71A6.73,6.73,0,0,1,159,47.2a3.84,3.84,0,0,1,1.28-1.68,5.66,5.66,0,0,1,2.21-.94,14.84,14.84,0,0,1,3.19-.3c2.47,0,4.26.41,5.39,1.24s1.68,2.22,1.68,4.19V60.27h-3.87V50.18a7,7,0,0,0-.09-1.19,1.66,1.66,0,0,0-.41-.85,1.87,1.87,0,0,0-.95-.51,9.6,9.6,0,0,0-3.49,0,2,2,0,0,0-1,.51,1.59,1.59,0,0,0-.42.85,7,7,0,0,0-.09,1.19V60.27Z" transform="translate(-125.14 -38.1)"/><path class="cls-1" d="M170.9,62.54l.9,0h.92a5.49,5.49,0,0,0,1.09-.09,1.31,1.31,0,0,0,.7-.36,1.5,1.5,0,0,0,.38-.79,7.41,7.41,0,0,0,.1-1.39V44.75h3.88V59.94a10.38,10.38,0,0,1-.3,2.72,3.68,3.68,0,0,1-1,1.71,3.81,3.81,0,0,1-1.74.91,11,11,0,0,1-2.63.27l-1.65,0-1.27,0Zm8.36-22.17a2.15,2.15,0,0,1-.51,1.62,3.45,3.45,0,0,1-3.58,0,2.15,2.15,0,0,1-.51-1.62,2.19,2.19,0,0,1,.51-1.61,3.4,3.4,0,0,1,3.58,0A2.19,2.19,0,0,1,179.26,40.37Z" transform="translate(-125.14 -38.1)"/><path class="cls-1" d="M194.53,57.46a2.82,2.82,0,0,1-.71,2.2,3.86,3.86,0,0,1-2.48.61h-4.86c-2.13,0-3.64-.4-4.52-1.19a4.37,4.37,0,0,1-1.33-3.44V55a4.27,4.27,0,0,1,1.46-3.6,7.59,7.59,0,0,1,4.57-1.12,11,11,0,0,1,2.58.26,5.15,5.15,0,0,1,1.53.58v-.54a4.68,4.68,0,0,0-.16-1.34,1.68,1.68,0,0,0-.55-.85A2.29,2.29,0,0,0,189,48a9.88,9.88,0,0,0-1.69-.12h-2.64l-1.38,0-1.26,0,.63-3.14,2.09,0h2.74c2.43,0,4.21.42,5.34,1.28a4.7,4.7,0,0,1,1.7,4Zm-3.76,0V55.05a3.42,3.42,0,0,0-.1-.91,1.1,1.1,0,0,0-.43-.61,2.23,2.23,0,0,0-.93-.35,9.56,9.56,0,0,0-1.58-.1h-.45a4.29,4.29,0,0,0-2.29.42,1.72,1.72,0,0,0-.6,1.52v.56a1.74,1.74,0,0,0,.55,1.42,3.3,3.3,0,0,0,2.05.46Z" transform="translate(-125.14 -38.1)"/><path class="cls-1" d="M220.37,60.27V45.08l-4.83,9.19h-3.31l-4.87-9v15h-4V39h4.39L214,50.57,219.92,39h4.42V60.27Z" transform="translate(-125.14 -38.1)"/><path class="cls-1" d="M240.36,57.46a2.78,2.78,0,0,1-.72,2.2,3.81,3.81,0,0,1-2.47.61H232.3c-2.12,0-3.63-.4-4.52-1.19a4.4,4.4,0,0,1-1.32-3.44V55a4.24,4.24,0,0,1,1.46-3.6,7.53,7.53,0,0,1,4.56-1.12,10.85,10.85,0,0,1,2.58.26,5.23,5.23,0,0,1,1.54.58v-.54a4.68,4.68,0,0,0-.16-1.34,1.7,1.7,0,0,0-.56-.85,2.25,2.25,0,0,0-1.06-.43,9.67,9.67,0,0,0-1.68-.12H230.5l-1.39,0-1.25,0,.63-3.14,2.08,0h2.75c2.42,0,4.21.42,5.34,1.28a4.73,4.73,0,0,1,1.7,4Zm-3.76,0V55.05a3.42,3.42,0,0,0-.1-.91,1.11,1.11,0,0,0-.44-.61,2.19,2.19,0,0,0-.92-.35,9.64,9.64,0,0,0-1.58-.1h-.45a4.36,4.36,0,0,0-2.3.42,1.72,1.72,0,0,0-.59,1.52v.56a1.74,1.74,0,0,0,.55,1.42,3.29,3.29,0,0,0,2,.46Z" transform="translate(-125.14 -38.1)"/><path class="cls-1" d="M250.92,50.87a6.71,6.71,0,0,1,2.22.52,3.79,3.79,0,0,1,1.38,1,3.59,3.59,0,0,1,.68,1.35,5.92,5.92,0,0,1,.2,1.52v.44a4,4,0,0,1-1.59,3.45,8.21,8.21,0,0,1-4.92,1.18H245.8l-1.86,0-1.85,0,.6-3.16,3.25,0,3.1,0a4.31,4.31,0,0,0,2-.33,1.25,1.25,0,0,0,.56-1.17,1.41,1.41,0,0,0-.35-1,2.6,2.6,0,0,0-1.53-.48l-3.28-.27a5.65,5.65,0,0,1-2-.47,4.29,4.29,0,0,1-1.34-1,3.48,3.48,0,0,1-.75-1.32,5.15,5.15,0,0,1-.22-1.53v-.45a4,4,0,0,1,1.45-3.3c1-.78,2.59-1.17,4.87-1.17h2.81l3.76,0-.6,3.17-2.3-.05h-4a4,4,0,0,0-1.82.28,1,1,0,0,0-.51,1,1.29,1.29,0,0,0,.34,1,3.08,3.08,0,0,0,1.6.43Z" transform="translate(-125.14 -38.1)"/><path class="cls-1" d="M261.12,50.63,267,44.75h4.69l-7.13,6.93,7.81,8.59h-4.83l-6.42-7.16v7.16h-3.87V38.1h3.87Z" transform="translate(-125.14 -38.1)"/><path class="cls-1" d="M277.26,40.37a2.15,2.15,0,0,1-.5,1.62,3.45,3.45,0,0,1-3.58,0,2.15,2.15,0,0,1-.51-1.62,2.19,2.19,0,0,1,.51-1.61,3.4,3.4,0,0,1,3.58,0A2.19,2.19,0,0,1,277.26,40.37ZM273,44.75h3.88V60.27H273Z" transform="translate(-125.14 -38.1)"/><path class="cls-1" d="M279.11,60.27V49.71a6.73,6.73,0,0,1,.42-2.51,3.84,3.84,0,0,1,1.28-1.68,5.66,5.66,0,0,1,2.21-.94,14.84,14.84,0,0,1,3.19-.3q3.71,0,5.39,1.24c1.12.82,1.69,2.22,1.69,4.19V60.27h-3.88V50.18a7,7,0,0,0-.09-1.19,1.66,1.66,0,0,0-.41-.85,1.83,1.83,0,0,0-1-.51,9.6,9.6,0,0,0-3.49,0,2,2,0,0,0-1,.51,1.59,1.59,0,0,0-.42.85,7,7,0,0,0-.09,1.19V60.27Z" transform="translate(-125.14 -38.1)"/><path class="cls-1" d="M314.8,54.63h-8.24l-2,5.64h-4L308.53,39h4.54L321,60.27H316.8Zm-7.16-3.22h6.08l-3-8.65Z" transform="translate(-125.14 -38.1)"/><path class="cls-1" d="M331.8,48a10.62,10.62,0,0,1,2.48.73A4.52,4.52,0,0,1,335.89,50a4.21,4.21,0,0,1,.86,1.7,8.54,8.54,0,0,1,.27,2.26v.48a7.66,7.66,0,0,1-.4,2.63,4.13,4.13,0,0,1-1.36,1.85,6.38,6.38,0,0,1-2.52,1.1,17.69,17.69,0,0,1-3.89.36H326c-1.16,0-2.69,0-4.58-.06L322,56.9l2.13,0,1.76,0h3a14.13,14.13,0,0,0,2-.12,3.1,3.1,0,0,0,1.25-.42,1.48,1.48,0,0,0,.63-.79,4.06,4.06,0,0,0,.17-1.27,6,6,0,0,0-.09-1.12,1.56,1.56,0,0,0-.38-.77,2,2,0,0,0-.8-.51,8.06,8.06,0,0,0-1.39-.34l-3.61-.6a10.49,10.49,0,0,1-2.64-.75,4.65,4.65,0,0,1-1.63-1.17,4,4,0,0,1-.82-1.66,9.57,9.57,0,0,1-.22-2.18v-.54a6.55,6.55,0,0,1,.42-2.41,4.2,4.2,0,0,1,1.34-1.81,6.86,6.86,0,0,1,2.43-1.13,14.59,14.59,0,0,1,3.72-.4h4.83l2.24.05-.63,3.37c-1.49,0-2.75-.06-3.77-.06h-2.88a11.48,11.48,0,0,0-1.85.12,2.87,2.87,0,0,0-1.14.4,1.46,1.46,0,0,0-.58.76,3.72,3.72,0,0,0-.16,1.19,5.13,5.13,0,0,0,.09,1,1.46,1.46,0,0,0,.36.71,1.87,1.87,0,0,0,.77.5,6.49,6.49,0,0,0,1.31.31Z" transform="translate(-125.14 -38.1)"/><path class="cls-2" d="M206.3,72.85a3.94,3.94,0,0,1-.09.91,1.26,1.26,0,0,1-.31.61,1.19,1.19,0,0,1-.56.35,3.15,3.15,0,0,1-.88.11,2,2,0,0,1-.6-.08,1.16,1.16,0,0,1-.4-.2v1.52h-1V72.44a3.41,3.41,0,0,1,.11-.92,1.39,1.39,0,0,1,.35-.59,1.34,1.34,0,0,1,.61-.33,3.7,3.7,0,0,1,.89-.1,3.25,3.25,0,0,1,.87.1,1.3,1.3,0,0,1,.59.32,1.44,1.44,0,0,1,.33.61,3.67,3.67,0,0,1,.11,1ZM204.36,74a2,2,0,0,0,.46,0,.46.46,0,0,0,.28-.16.75.75,0,0,0,.13-.35,4.3,4.3,0,0,0,0-.59v-.4a4.47,4.47,0,0,0,0-.6.88.88,0,0,0-.14-.35.46.46,0,0,0-.28-.16,1.82,1.82,0,0,0-.45,0,1.78,1.78,0,0,0-.44,0,.51.51,0,0,0-.28.15.75.75,0,0,0-.14.35,4.14,4.14,0,0,0,0,.58V73a2.27,2.27,0,0,0,0,.5.56.56,0,0,0,.14.31.52.52,0,0,0,.28.16A1.74,1.74,0,0,0,204.36,74Z" transform="translate(-125.14 -38.1)"/><path class="cls-2" d="M209.32,70.5a3.39,3.39,0,0,1,.9.1,1.43,1.43,0,0,1,.6.31,1.26,1.26,0,0,1,.34.6,3.57,3.57,0,0,1,.11.94v.43a3.57,3.57,0,0,1-.11.94,1.26,1.26,0,0,1-.34.6,1.32,1.32,0,0,1-.6.31,4.1,4.1,0,0,1-1.8,0,1.32,1.32,0,0,1-.6-.31,1.26,1.26,0,0,1-.34-.6,3.57,3.57,0,0,1-.11-.94v-.43a3.57,3.57,0,0,1,.11-.94,1.26,1.26,0,0,1,.34-.6,1.43,1.43,0,0,1,.6-.31A3.39,3.39,0,0,1,209.32,70.5Zm.91,1.94a3,3,0,0,0,0-.58.75.75,0,0,0-.13-.35.51.51,0,0,0-.28-.15,1.91,1.91,0,0,0-.46,0,2,2,0,0,0-.46,0,.51.51,0,0,0-.28.15.75.75,0,0,0-.13.35,3,3,0,0,0,0,.58v.46a3.09,3.09,0,0,0,0,.58.71.71,0,0,0,.13.34.45.45,0,0,0,.28.15,2,2,0,0,0,.46,0,1.91,1.91,0,0,0,.46,0,.45.45,0,0,0,.28-.15.71.71,0,0,0,.13-.34,3.09,3.09,0,0,0,0-.58Z" transform="translate(-125.14 -38.1)"/><path class="cls-2" d="M214.61,72.24a1.78,1.78,0,0,1,.58.13,1.11,1.11,0,0,1,.36.26.87.87,0,0,1,.18.36,1.75,1.75,0,0,1,.05.4v.11a1.08,1.08,0,0,1-.41.91,2.17,2.17,0,0,1-1.3.31h-1.3l-.48,0,.15-.83h1.67a1.14,1.14,0,0,0,.54-.09.32.32,0,0,0,.14-.3.37.37,0,0,0-.09-.27.76.76,0,0,0-.4-.13l-.86-.07a1.29,1.29,0,0,1-.52-.12,1.08,1.08,0,0,1-.36-.26.88.88,0,0,1-.19-.34,1.34,1.34,0,0,1-.06-.4v-.12a1.08,1.08,0,0,1,.38-.87,2.09,2.09,0,0,1,1.28-.31h1.73l-.16.83h-1.65a1.06,1.06,0,0,0-.48.08.28.28,0,0,0-.14.26.33.33,0,0,0,.09.26.74.74,0,0,0,.42.12Z" transform="translate(-125.14 -38.1)"/><path class="cls-2" d="M219.18,74.7h-.63a3.63,3.63,0,0,1-.81-.07,1,1,0,0,1-.5-.24.93.93,0,0,1-.26-.48,3.09,3.09,0,0,1-.07-.74V69.68l1-.16v1.11h1.46l-.16.84h-1.3v1.64a2.06,2.06,0,0,0,0,.39.41.41,0,0,0,.1.23.42.42,0,0,0,.21.11,1.69,1.69,0,0,0,.35,0h.73Z" transform="translate(-125.14 -38.1)"/><path class="cls-2" d="M225.45,73.88a.78.78,0,0,1-.17.56,1,1,0,0,1-.64.16h-1.16a1.78,1.78,0,0,1-1.11-.28,1.09,1.09,0,0,1-.37-.93v-.18a1.09,1.09,0,0,1,.38-.92,1.8,1.8,0,0,1,1.1-.29,2.64,2.64,0,0,1,.6.06,1.69,1.69,0,0,1,.42.15v-.12a1.37,1.37,0,0,0-.07-.49.7.7,0,0,0-.24-.3,1.14,1.14,0,0,0-.43-.15,3.16,3.16,0,0,0-.66-.05,4.51,4.51,0,0,0-.91.08,1.38,1.38,0,0,0-.57.27,1,1,0,0,0-.29.5,3.28,3.28,0,0,0-.08.76v1.12a3.35,3.35,0,0,0,.09.85,1.07,1.07,0,0,0,.33.54,1.64,1.64,0,0,0,.68.28,6.86,6.86,0,0,0,1.12.07h.76l.73,0-.16.8-.66,0h-.68a8,8,0,0,1-1.51-.12,2.17,2.17,0,0,1-1-.42,1.62,1.62,0,0,1-.52-.79,4.22,4.22,0,0,1-.16-1.23V72.71a3.62,3.62,0,0,1,.16-1.11,1.75,1.75,0,0,1,.49-.75,2.22,2.22,0,0,1,.87-.43,6,6,0,0,1,1.29-.13,4.65,4.65,0,0,1,1.06.1,1.69,1.69,0,0,1,.73.32,1.24,1.24,0,0,1,.42.56,2.2,2.2,0,0,1,.13.82Zm-.95,0v-.64a.46.46,0,0,0-.16-.4,1.28,1.28,0,0,0-.63-.11,2.06,2.06,0,0,0-.39,0,.44.44,0,0,0-.23.08A.27.27,0,0,0,223,73a.78.78,0,0,0,0,.24v.13a.51.51,0,0,0,.14.4.73.73,0,0,0,.48.12Z" transform="translate(-125.14 -38.1)"/><path class="cls-2" d="M228.87,72.24a1.78,1.78,0,0,1,.58.13.93.93,0,0,1,.36.26A.87.87,0,0,1,230,73a1.33,1.33,0,0,1,0,.4v.11a1.06,1.06,0,0,1-.41.91,2.15,2.15,0,0,1-1.29.31H227l-.48,0,.16-.83h1.66a1.11,1.11,0,0,0,.54-.09.32.32,0,0,0,.15-.3.37.37,0,0,0-.09-.27.8.8,0,0,0-.41-.13L227.7,73a1.33,1.33,0,0,1-.52-.12,1,1,0,0,1-.35-.26.9.9,0,0,1-.2-.34,1.34,1.34,0,0,1-.06-.4v-.12a1.08,1.08,0,0,1,.38-.87,2.11,2.11,0,0,1,1.28-.31H230l-.16.83h-1.65a1.06,1.06,0,0,0-.48.08.27.27,0,0,0-.13.26.33.33,0,0,0,.09.26.74.74,0,0,0,.42.12Z" transform="translate(-125.14 -38.1)"/><path class="cls-2" d="M232.11,73a2.86,2.86,0,0,0,0,.46.6.6,0,0,0,.13.29.69.69,0,0,0,.27.14,2.71,2.71,0,0,0,.46,0h.62l.87,0-.15.78-.39,0h-1a2.68,2.68,0,0,1-.92-.13,1.19,1.19,0,0,1-.56-.36,1.24,1.24,0,0,1-.29-.57,3.1,3.1,0,0,1-.09-.78v-.44a3.46,3.46,0,0,1,.09-.83,1.52,1.52,0,0,1,.3-.61,1.38,1.38,0,0,1,.58-.37,3,3,0,0,1,.92-.13,2.62,2.62,0,0,1,.86.12,1.39,1.39,0,0,1,.55.31,1.07,1.07,0,0,1,.29.49,1.89,1.89,0,0,1,.09.6v.14a2.54,2.54,0,0,1,0,.43.57.57,0,0,1-.11.26.31.31,0,0,1-.19.13,1.23,1.23,0,0,1-.29,0Zm.85-1.74a2.33,2.33,0,0,0-.43,0,.53.53,0,0,0-.26.16.68.68,0,0,0-.13.31,3.19,3.19,0,0,0,0,.49h1.69v-.18a2,2,0,0,0,0-.39.51.51,0,0,0-.14-.25.55.55,0,0,0-.25-.14A2.27,2.27,0,0,0,233,71.27Z" transform="translate(-125.14 -38.1)"/><path class="cls-2" d="M235.88,74.7V71.93a1.82,1.82,0,0,1,.11-.66,1,1,0,0,1,.34-.44,1.48,1.48,0,0,1,.58-.25,4,4,0,0,1,.84-.08,2.38,2.38,0,0,1,1.41.33,1.26,1.26,0,0,1,.44,1.1V74.7h-1V72.05a1.42,1.42,0,0,0,0-.31.41.41,0,0,0-.1-.22.55.55,0,0,0-.25-.14,2.71,2.71,0,0,0-.46,0,2.52,2.52,0,0,0-.46,0,.59.59,0,0,0-.26.14.51.51,0,0,0-.11.22,2.69,2.69,0,0,0,0,.31V74.7Z" transform="translate(-125.14 -38.1)"/><path class="cls-2" d="M239.76,75.3h.48a1.09,1.09,0,0,0,.28,0,.31.31,0,0,0,.19-.09.41.41,0,0,0,.1-.21,1.84,1.84,0,0,0,0-.36v-4h1v4a2.44,2.44,0,0,1-.08.71.9.9,0,0,1-.25.45,1.06,1.06,0,0,1-.46.24,2.77,2.77,0,0,1-.69.07h-.43l-.34,0ZM242,69.48a.54.54,0,0,1-.13.42.64.64,0,0,1-.47.13.66.66,0,0,1-.47-.13.54.54,0,0,1-.13-.42.58.58,0,0,1,.13-.43.66.66,0,0,1,.47-.13.64.64,0,0,1,.47.13A.58.58,0,0,1,242,69.48Z" transform="translate(-125.14 -38.1)"/><path class="cls-2" d="M246.61,74a.7.7,0,0,1-.19.57,1,1,0,0,1-.65.16h-1.28a1.74,1.74,0,0,1-1.18-.31,1.13,1.13,0,0,1-.35-.9v-.17a1.14,1.14,0,0,1,.38-.95,2,2,0,0,1,1.2-.29,3.23,3.23,0,0,1,.68.06,1.43,1.43,0,0,1,.4.16v-.14a1.28,1.28,0,0,0,0-.36.48.48,0,0,0-.15-.22.61.61,0,0,0-.27-.11,2.81,2.81,0,0,0-.45,0h-1.38l.16-.82h1.27a2.34,2.34,0,0,1,1.4.34,1.23,1.23,0,0,1,.45,1.06Zm-1,0v-.64a.88.88,0,0,0,0-.24.25.25,0,0,0-.11-.16.67.67,0,0,0-.24-.09,2.34,2.34,0,0,0-.42,0h-.11a1.21,1.21,0,0,0-.61.11.48.48,0,0,0-.15.4v.15a.47.47,0,0,0,.14.38.89.89,0,0,0,.54.12Z" transform="translate(-125.14 -38.1)"/><path class="cls-2" d="M247.84,74.7V71.91a1.82,1.82,0,0,1,.11-.66,1,1,0,0,1,.32-.43,1.43,1.43,0,0,1,.53-.24,3.11,3.11,0,0,1,.72-.08,2.11,2.11,0,0,1,.75.12.55.55,0,0,0,1,0,2.2,2.2,0,0,1,.76-.12,3.08,3.08,0,0,1,.71.08,1.36,1.36,0,0,1,.53.24,1.1,1.1,0,0,1,.33.43,1.82,1.82,0,0,1,.11.66V74.7h-1V72.05a2.69,2.69,0,0,0,0-.31.63.63,0,0,0-.09-.22.44.44,0,0,0-.22-.14,1.87,1.87,0,0,0-.39,0,1.19,1.19,0,0,0-.36,0,.53.53,0,0,0-.21.12.44.44,0,0,0-.1.19,1.19,1.19,0,0,0,0,.28V74.7h-1V72.05a2.69,2.69,0,0,0,0-.31.5.5,0,0,0-.1-.22.46.46,0,0,0-.21-.14,1.87,1.87,0,0,0-.39,0,1.76,1.76,0,0,0-.38,0,.46.46,0,0,0-.21.14.4.4,0,0,0-.09.22,2.69,2.69,0,0,0,0,.31V74.7Z" transform="translate(-125.14 -38.1)"/><path class="cls-2" d="M258.48,74a.7.7,0,0,1-.19.57,1,1,0,0,1-.65.16h-1.27a1.77,1.77,0,0,1-1.19-.31,1.16,1.16,0,0,1-.35-.9v-.17a1.14,1.14,0,0,1,.38-.95,2,2,0,0,1,1.2-.29,3.23,3.23,0,0,1,.68.06,1.31,1.31,0,0,1,.4.16v-.14a1.28,1.28,0,0,0,0-.36.55.55,0,0,0-.14-.22.66.66,0,0,0-.28-.11,2.76,2.76,0,0,0-.44,0H255.2l.16-.82h1.27A2.4,2.4,0,0,1,258,71a1.26,1.26,0,0,1,.44,1.06Zm-1,0v-.64a.9.9,0,0,0,0-.24.31.31,0,0,0-.12-.16.6.6,0,0,0-.24-.09,2.22,2.22,0,0,0-.41,0h-.12a1.21,1.21,0,0,0-.61.11.48.48,0,0,0-.15.4v.15a.51.51,0,0,0,.14.38.89.89,0,0,0,.54.12Z" transform="translate(-125.14 -38.1)"/><path class="cls-2" d="M261.9,72.24a1.78,1.78,0,0,1,.58.13.93.93,0,0,1,.36.26A.87.87,0,0,1,263,73a1.33,1.33,0,0,1,.05.4v.11a1.06,1.06,0,0,1-.41.91,2.15,2.15,0,0,1-1.29.31h-1.31l-.48,0,.16-.83h1.66a1.11,1.11,0,0,0,.54-.09.32.32,0,0,0,.15-.3.37.37,0,0,0-.09-.27.8.8,0,0,0-.41-.13l-.86-.07a1.33,1.33,0,0,1-.52-.12,1,1,0,0,1-.35-.26.9.9,0,0,1-.2-.34,1.34,1.34,0,0,1-.06-.4v-.12a1.08,1.08,0,0,1,.38-.87,2.11,2.11,0,0,1,1.28-.31H263l-.16.83h-1.65a1.06,1.06,0,0,0-.48.08.27.27,0,0,0-.13.26.33.33,0,0,0,.09.26.74.74,0,0,0,.42.12Z" transform="translate(-125.14 -38.1)"/><path class="cls-2" d="M265.22,72.17l1.54-1.54H268l-1.88,1.82,2.06,2.25h-1.27l-1.69-1.88V74.7h-1V68.88h1Z" transform="translate(-125.14 -38.1)"/><path class="cls-2" d="M270.1,69.48a.54.54,0,0,1-.13.42.91.91,0,0,1-.94,0,.54.54,0,0,1-.13-.42.58.58,0,0,1,.13-.43.91.91,0,0,1,.94,0A.58.58,0,0,1,270.1,69.48ZM269,70.63h1V74.7h-1Z" transform="translate(-125.14 -38.1)"/><path class="cls-2" d="M271.23,74.7V71.93a1.82,1.82,0,0,1,.11-.66,1,1,0,0,1,.34-.44,1.48,1.48,0,0,1,.58-.25,4,4,0,0,1,.84-.08,2.38,2.38,0,0,1,1.41.33,1.26,1.26,0,0,1,.44,1.1V74.7h-1V72.05a1.42,1.42,0,0,0,0-.31.41.41,0,0,0-.1-.22.55.55,0,0,0-.25-.14,2.71,2.71,0,0,0-.46,0,2.52,2.52,0,0,0-.46,0,.59.59,0,0,0-.26.14.51.51,0,0,0-.11.22,2.69,2.69,0,0,0,0,.31V74.7Z" transform="translate(-125.14 -38.1)"/><path class="cls-2" d="M277.23,74.17a.61.61,0,0,1-.15.45.81.81,0,0,1-.94,0,.79.79,0,0,1,0-.9.81.81,0,0,1,.94,0A.61.61,0,0,1,277.23,74.17Z" transform="translate(-125.14 -38.1)"/><path class="cls-2" d="M278.27,74.7V71.93a1.82,1.82,0,0,1,.11-.66.93.93,0,0,1,.34-.44,1.48,1.48,0,0,1,.58-.25,4,4,0,0,1,.83-.08,2.42,2.42,0,0,1,1.42.33,1.29,1.29,0,0,1,.44,1.1V74.7h-1V72.05a2.69,2.69,0,0,0,0-.31.42.42,0,0,0-.11-.22.5.5,0,0,0-.25-.14,2.52,2.52,0,0,0-.46,0,2.48,2.48,0,0,0-.45,0,.54.54,0,0,0-.26.14.42.42,0,0,0-.11.22,2.69,2.69,0,0,0,0,.31V74.7Z" transform="translate(-125.14 -38.1)"/><path class="cls-2" d="M285.09,70.5a3.39,3.39,0,0,1,.9.1,1.43,1.43,0,0,1,.6.31,1.26,1.26,0,0,1,.34.6,3.57,3.57,0,0,1,.11.94v.43a3.57,3.57,0,0,1-.11.94,1.26,1.26,0,0,1-.34.6,1.32,1.32,0,0,1-.6.31,4.1,4.1,0,0,1-1.8,0,1.32,1.32,0,0,1-.6-.31,1.26,1.26,0,0,1-.34-.6,3.57,3.57,0,0,1-.11-.94v-.43a3.57,3.57,0,0,1,.11-.94,1.26,1.26,0,0,1,.34-.6,1.43,1.43,0,0,1,.6-.31A3.39,3.39,0,0,1,285.09,70.5Zm.91,1.94a3,3,0,0,0,0-.58.75.75,0,0,0-.13-.35.51.51,0,0,0-.28-.15,1.91,1.91,0,0,0-.46,0,2,2,0,0,0-.46,0,.51.51,0,0,0-.28.15.75.75,0,0,0-.13.35,3,3,0,0,0,0,.58v.46a3.09,3.09,0,0,0,0,.58.71.71,0,0,0,.13.34.45.45,0,0,0,.28.15,2,2,0,0,0,.46,0,1.91,1.91,0,0,0,.46,0,.45.45,0,0,0,.28-.15.71.71,0,0,0,.13-.34,3.09,3.09,0,0,0,0-.58Z" transform="translate(-125.14 -38.1)"/><path class="cls-1" d="M127.41,74.7h-.64a3.63,3.63,0,0,1-.81-.07,1,1,0,0,1-.5-.24.92.92,0,0,1-.25-.48,3.09,3.09,0,0,1-.07-.74V69.68l1-.16v1.11h1.47l-.16.84h-1.31v1.64a2.06,2.06,0,0,0,0,.39.49.49,0,0,0,.1.23.42.42,0,0,0,.22.11,1.58,1.58,0,0,0,.34,0h.73Z" transform="translate(-125.14 -38.1)"/><path class="cls-1" d="M129.39,73a2.86,2.86,0,0,0,0,.46.6.6,0,0,0,.13.29.69.69,0,0,0,.27.14,2.71,2.71,0,0,0,.46,0h.62l.87,0-.15.78-.4,0h-1a2.68,2.68,0,0,1-.92-.13,1.27,1.27,0,0,1-.57-.36,1.46,1.46,0,0,1-.29-.57,3.67,3.67,0,0,1-.08-.78v-.44a3.46,3.46,0,0,1,.09-.83,1.52,1.52,0,0,1,.3-.61,1.32,1.32,0,0,1,.58-.37,3,3,0,0,1,.92-.13,2.62,2.62,0,0,1,.86.12,1.39,1.39,0,0,1,.55.31,1.16,1.16,0,0,1,.29.49,1.89,1.89,0,0,1,.09.6v.14a2.54,2.54,0,0,1,0,.43.57.57,0,0,1-.11.26.31.31,0,0,1-.19.13,1.23,1.23,0,0,1-.29,0Zm.85-1.74a2.33,2.33,0,0,0-.43,0,.53.53,0,0,0-.26.16.68.68,0,0,0-.13.31,3.19,3.19,0,0,0,0,.49h1.69v-.18a2,2,0,0,0,0-.39.51.51,0,0,0-.14-.25.59.59,0,0,0-.26-.14A2.06,2.06,0,0,0,130.24,71.27Z" transform="translate(-125.14 -38.1)"/><path class="cls-1" d="M133,68.88h1V74.7h-1Z" transform="translate(-125.14 -38.1)"/><path class="cls-1" d="M136.1,73a2.86,2.86,0,0,0,0,.46.52.52,0,0,0,.13.29.57.57,0,0,0,.27.14,2.58,2.58,0,0,0,.45,0h.63l.87,0-.16.78-.39,0h-1a2.68,2.68,0,0,1-.92-.13,1.27,1.27,0,0,1-.57-.36,1.34,1.34,0,0,1-.29-.57,3.67,3.67,0,0,1-.08-.78v-.44a3.46,3.46,0,0,1,.09-.83,1.3,1.3,0,0,1,.3-.61,1.27,1.27,0,0,1,.58-.37,3,3,0,0,1,.92-.13,2.66,2.66,0,0,1,.86.12,1.47,1.47,0,0,1,.55.31,1.28,1.28,0,0,1,.29.49,1.89,1.89,0,0,1,.09.6v.14a2.42,2.42,0,0,1,0,.43.57.57,0,0,1-.1.26.35.35,0,0,1-.19.13,1.23,1.23,0,0,1-.29,0Zm.85-1.74a2.45,2.45,0,0,0-.44,0,.49.49,0,0,0-.25.16.59.59,0,0,0-.13.31,3.19,3.19,0,0,0,0,.49h1.68v-.18a1.46,1.46,0,0,0,0-.39.5.5,0,0,0-.13-.25.59.59,0,0,0-.26-.14A2.15,2.15,0,0,0,137,71.27Z" transform="translate(-125.14 -38.1)"/><path class="cls-1" d="M141.7,69.7a2.65,2.65,0,0,0-.44,0,.56.56,0,0,0-.29.14.54.54,0,0,0-.15.28,1.92,1.92,0,0,0-.06.47h1.47l-.17.84h-1.3V74.7h-1v-4a3.62,3.62,0,0,1,.1-.88,1.28,1.28,0,0,1,.34-.59,1.43,1.43,0,0,1,.6-.32,3.94,3.94,0,0,1,.91-.09h.84l-.16.84h-.67Z" transform="translate(-125.14 -38.1)"/><path class="cls-1" d="M144.66,70.5a3.39,3.39,0,0,1,.9.1,1.43,1.43,0,0,1,.6.31,1.26,1.26,0,0,1,.34.6,3.57,3.57,0,0,1,.11.94v.43a3.57,3.57,0,0,1-.11.94,1.26,1.26,0,0,1-.34.6,1.32,1.32,0,0,1-.6.31,4.1,4.1,0,0,1-1.8,0,1.32,1.32,0,0,1-.6-.31,1.26,1.26,0,0,1-.34-.6,3.57,3.57,0,0,1-.11-.94v-.43a3.57,3.57,0,0,1,.11-.94,1.26,1.26,0,0,1,.34-.6,1.43,1.43,0,0,1,.6-.31A3.39,3.39,0,0,1,144.66,70.5Zm.91,1.94a3,3,0,0,0,0-.58.75.75,0,0,0-.13-.35.51.51,0,0,0-.28-.15,2,2,0,0,0-.46,0,2,2,0,0,0-.46,0,.51.51,0,0,0-.28.15.75.75,0,0,0-.13.35,3,3,0,0,0,0,.58v.46a3.09,3.09,0,0,0,0,.58.71.71,0,0,0,.13.34.45.45,0,0,0,.28.15,2,2,0,0,0,.46,0,2,2,0,0,0,.46,0,.45.45,0,0,0,.28-.15.71.71,0,0,0,.13-.34,3.09,3.09,0,0,0,0-.58Z" transform="translate(-125.14 -38.1)"/><path class="cls-1" d="M147.63,74.7V71.93a1.82,1.82,0,0,1,.11-.66,1.07,1.07,0,0,1,.34-.44,1.54,1.54,0,0,1,.58-.25,4.13,4.13,0,0,1,.84-.08,2.36,2.36,0,0,1,1.41.33,1.27,1.27,0,0,1,.45,1.1V74.7h-1V72.05a1.42,1.42,0,0,0,0-.31.41.41,0,0,0-.1-.22.55.55,0,0,0-.25-.14,2.67,2.67,0,0,0-.92,0,.5.5,0,0,0-.25.14.36.36,0,0,0-.11.22,1.42,1.42,0,0,0,0,.31V74.7Z" transform="translate(-125.14 -38.1)"/><path class="cls-1" d="M157.26,72.59a1.17,1.17,0,0,1-.43.22,2.35,2.35,0,0,1-.63.08,2.8,2.8,0,0,1-.76-.1,1.15,1.15,0,0,1-.53-.3,1.3,1.3,0,0,1-.31-.54,2.69,2.69,0,0,1-.1-.8V71a1.77,1.77,0,0,1,.44-1.31,2,2,0,0,1,1.43-.43,2.79,2.79,0,0,1,.87.11,1.24,1.24,0,0,1,.58.34,1.52,1.52,0,0,1,.33.63,3.66,3.66,0,0,1,.1.94v1.22a5.14,5.14,0,0,1-.08.91,1.59,1.59,0,0,1-.3.7,1.34,1.34,0,0,1-.6.46,2.5,2.5,0,0,1-1,.16h-.68l-.77,0,.15-.83h1.33a1.15,1.15,0,0,0,.5-.09.61.61,0,0,0,.29-.23.82.82,0,0,0,.13-.35,2.77,2.77,0,0,0,0-.42ZM156.38,70a1.61,1.61,0,0,0-.42,0,.52.52,0,0,0-.28.16.6.6,0,0,0-.14.3,2.24,2.24,0,0,0,0,.49v.08a2.2,2.2,0,0,0,0,.5.7.7,0,0,0,.13.3.51.51,0,0,0,.25.16,1.51,1.51,0,0,0,.39,0,1.89,1.89,0,0,0,.44,0,.71.71,0,0,0,.3-.15.54.54,0,0,0,.16-.3,1.82,1.82,0,0,0,0-.51V71a1.68,1.68,0,0,0,0-.48.71.71,0,0,0-.15-.3.52.52,0,0,0-.28-.16A1.5,1.5,0,0,0,156.38,70Z" transform="translate(-125.14 -38.1)"/><path class="cls-1" d="M161.24,69.25a2.89,2.89,0,0,1,1,.15,1.39,1.39,0,0,1,.62.46,1.55,1.55,0,0,1,.31.74,5.05,5.05,0,0,1,.09,1v.86a5.05,5.05,0,0,1-.09,1,1.6,1.6,0,0,1-.31.74,1.47,1.47,0,0,1-.62.46,3.54,3.54,0,0,1-2,0,1.41,1.41,0,0,1-.62-.46,1.84,1.84,0,0,1-.31-.74,6,6,0,0,1-.08-1v-.86a6,6,0,0,1,.08-1,1.78,1.78,0,0,1,.31-.74,1.34,1.34,0,0,1,.62-.46A2.89,2.89,0,0,1,161.24,69.25Zm-1,3.17a5.72,5.72,0,0,0,0,.79,1.05,1.05,0,0,0,.15.49.6.6,0,0,0,.3.24,2,2,0,0,0,1,0,.6.6,0,0,0,.3-.24,1.35,1.35,0,0,0,.15-.49c0-.2,0-.47,0-.79v-.75c0-.33,0-.6,0-.81a1.23,1.23,0,0,0-.15-.48.51.51,0,0,0-.3-.24,2,2,0,0,0-1,0,.51.51,0,0,0-.3.24,1,1,0,0,0-.15.48,6,6,0,0,0,0,.81Z" transform="translate(-125.14 -38.1)"/><path class="cls-1" d="M164.66,74.7l1.73-4.49h-2.61l.18-.84h3.5v.76l-1.71,4.57Z" transform="translate(-125.14 -38.1)"/><path class="cls-1" d="M172.53,69.25a2.22,2.22,0,0,1,1.41.35,1.31,1.31,0,0,1,.42,1.06v.12a1.16,1.16,0,0,1-.68,1.13,1.17,1.17,0,0,1,.61.46,1.5,1.5,0,0,1,.18.76v.19a1.36,1.36,0,0,1-.46,1.15,3.22,3.22,0,0,1-3,0,1.36,1.36,0,0,1-.46-1.15v-.19a1.41,1.41,0,0,1,.19-.76,1.19,1.19,0,0,1,.6-.46,1.25,1.25,0,0,1-.51-.45,1.34,1.34,0,0,1-.17-.68v-.12a1.31,1.31,0,0,1,.42-1.06A2.28,2.28,0,0,1,172.53,69.25Zm0,3a1.5,1.5,0,0,0-.46,0,.62.62,0,0,0-.29.15.5.5,0,0,0-.14.27,1.48,1.48,0,0,0,0,.38v.06a1.38,1.38,0,0,0,0,.38.5.5,0,0,0,.14.27.68.68,0,0,0,.28.15,2.78,2.78,0,0,0,.94,0,.72.72,0,0,0,.29-.15.5.5,0,0,0,.14-.27,1.38,1.38,0,0,0,0-.38v-.06a1.48,1.48,0,0,0,0-.38.5.5,0,0,0-.14-.27.62.62,0,0,0-.29-.15A1.61,1.61,0,0,0,172.53,72.3Zm0-2.31a1.06,1.06,0,0,0-.68.16.67.67,0,0,0-.2.55v.12a1.16,1.16,0,0,0,0,.35.59.59,0,0,0,.14.23.85.85,0,0,0,.27.12,3,3,0,0,0,.84,0,.85.85,0,0,0,.27-.12.43.43,0,0,0,.14-.23,1.13,1.13,0,0,0,0-.35V70.7a.68.68,0,0,0-.19-.55A1.06,1.06,0,0,0,172.54,70Z" transform="translate(-125.14 -38.1)"/><path class="cls-1" d="M177.43,69.25a2.89,2.89,0,0,1,1,.15,1.39,1.39,0,0,1,.62.46,1.55,1.55,0,0,1,.31.74,5.05,5.05,0,0,1,.09,1v.86a5.05,5.05,0,0,1-.09,1,1.6,1.6,0,0,1-.31.74,1.47,1.47,0,0,1-.62.46,3.54,3.54,0,0,1-2,0,1.41,1.41,0,0,1-.62-.46,1.84,1.84,0,0,1-.31-.74,6,6,0,0,1-.08-1v-.86a6,6,0,0,1,.08-1,1.78,1.78,0,0,1,.31-.74,1.34,1.34,0,0,1,.62-.46A2.89,2.89,0,0,1,177.43,69.25Zm-1,3.17a5.72,5.72,0,0,0,0,.79,1.05,1.05,0,0,0,.15.49.6.6,0,0,0,.3.24,2,2,0,0,0,1,0,.6.6,0,0,0,.3-.24,1.35,1.35,0,0,0,.15-.49c0-.2,0-.47,0-.79v-.75c0-.33,0-.6,0-.81a1.23,1.23,0,0,0-.15-.48.51.51,0,0,0-.3-.24,2,2,0,0,0-1,0,.51.51,0,0,0-.3.24,1,1,0,0,0-.15.48,6,6,0,0,0,0,.81Z" transform="translate(-125.14 -38.1)"/><path class="cls-1" d="M182.69,69.37h1.74a1.74,1.74,0,0,1,1.2.36,1.21,1.21,0,0,1,.4,1v.15a1.26,1.26,0,0,1-.17.71,1.16,1.16,0,0,1-.52.39,1.13,1.13,0,0,1,.59.41,1.19,1.19,0,0,1,.2.75v.21a1.29,1.29,0,0,1-.45,1,2.21,2.21,0,0,1-1.42.38H183l-.52,0,.14-.83h1.78a.74.74,0,0,0,.54-.16.59.59,0,0,0,.18-.48v-.16a.66.66,0,0,0-.18-.53,1,1,0,0,0-.61-.15h-1.46l.15-.83h1.32a.84.84,0,0,0,.51-.14A.52.52,0,0,0,185,71v-.17a.62.62,0,0,0-.16-.48.75.75,0,0,0-.52-.15h-1.75Z" transform="translate(-125.14 -38.1)"/><path class="cls-1" d="M187.18,69.37h1.73a1.77,1.77,0,0,1,1.21.36,1.24,1.24,0,0,1,.39,1v.15a1.18,1.18,0,0,1-.17.71,1.11,1.11,0,0,1-.52.39,1.2,1.2,0,0,1,.6.41,1.26,1.26,0,0,1,.2.75v.21a1.27,1.27,0,0,1-.46,1,2.19,2.19,0,0,1-1.42.38h-1.3l-.52,0,.15-.83h1.77a.79.79,0,0,0,.55-.16.62.62,0,0,0,.17-.48v-.16a.66.66,0,0,0-.18-.53.94.94,0,0,0-.6-.15h-1.47l.15-.83h1.32a.84.84,0,0,0,.51-.14.49.49,0,0,0,.17-.43v-.17a.62.62,0,0,0-.16-.48.73.73,0,0,0-.52-.15H187Z" transform="translate(-125.14 -38.1)"/><path class="cls-1" d="M193.6,69.25a2.89,2.89,0,0,1,1,.15,1.37,1.37,0,0,1,.63.46,1.78,1.78,0,0,1,.31.74,6,6,0,0,1,.08,1v.86a6,6,0,0,1-.08,1,1.84,1.84,0,0,1-.31.74,1.44,1.44,0,0,1-.63.46,3.54,3.54,0,0,1-2,0,1.47,1.47,0,0,1-.62-.46,1.84,1.84,0,0,1-.31-.74,6,6,0,0,1-.08-1v-.86a6,6,0,0,1,.08-1,1.78,1.78,0,0,1,.31-.74,1.39,1.39,0,0,1,.62-.46A2.89,2.89,0,0,1,193.6,69.25Zm-1,3.17c0,.32,0,.59,0,.79a1.35,1.35,0,0,0,.15.49.6.6,0,0,0,.3.24,2,2,0,0,0,1,0,.6.6,0,0,0,.3-.24,1.05,1.05,0,0,0,.15-.49,5.72,5.72,0,0,0,0-.79v-.75a6,6,0,0,0,0-.81,1,1,0,0,0-.15-.48.51.51,0,0,0-.3-.24,2,2,0,0,0-1,0,.51.51,0,0,0-.3.24,1.23,1.23,0,0,0-.15.48c0,.21,0,.48,0,.81Z" transform="translate(-125.14 -38.1)"/><path class="cls-3" d="M292.35,87.25c.2.08.27,0,.32-.15.85-2.59,2.17-5.49,2.74-6.86.39-.95.42-1.51.22-1.91-.08-.16-.21-.16-.29,0a52.65,52.65,0,0,0-3.15,7.74c-.18-2-.23-3.77-.28-5,0-1-.2-1.44-.57-1.69-.14-.11-.22-.06-.25.14a34.07,34.07,0,0,0,.28,6.24C291.5,86.64,291.81,87,292.35,87.25Z" transform="translate(-125.14 -38.1)"/><path class="cls-3" d="M296.94,86.06a2.27,2.27,0,0,0,1.49-1.75.89.89,0,0,0-.11-.78c-.08-.08-.17-.07-.2.06-.15.93-.61,1.91-1.15,2.08s-.53-.34-.43-1.13.4-1.64.52-2.24a1.33,1.33,0,0,0-.34-1.34c-.12-.08-.2,0-.27.15a15.36,15.36,0,0,0-.79,3.38C295.58,85.58,296,86.3,296.94,86.06Z" transform="translate(-125.14 -38.1)"/><path class="cls-3" d="M297.55,80.59a.74.74,0,0,0-.13-.84c-.24-.29-.63-.34-.77-.08a.79.79,0,0,0,.17.92A.45.45,0,0,0,297.55,80.59Z" transform="translate(-125.14 -38.1)"/><path class="cls-3" d="M314.19,81.57a2.19,2.19,0,0,0,1.4-1.43,1.21,1.21,0,0,0,1.33.73,2.4,2.4,0,0,0,1.46-1.48,1.52,1.52,0,0,0,1.8.6c1.45-.4,2.37-2.28,2.83-4.67a2.91,2.91,0,0,0,1.35-.85,7.38,7.38,0,0,0-.92,2.71c-.05,1.06.53,1.8,1.48,1.61a2,2,0,0,0,1.38-1.71,1.1,1.1,0,0,0-.15-.81c-.07-.09-.15,0-.18.06-.15,1-.57,2-1.09,2.09-.36.08-.64-.37-.61-1.1a7.19,7.19,0,0,1,.86-2.49c.26-.49-.2-1-.51-1.21-.12-.1-.21,0-.34.13a3.34,3.34,0,0,1-1.18.92c.1-.87,0-1.65-.35-1.54s-1.28,2.09-.23,2.24c-.27,1.72-1.12,4-2.47,4.29-.63.14-1.15-.58-1-1.79a1.51,1.51,0,0,0,2.15-1,1.69,1.69,0,0,0,0-1.74,2.4,2.4,0,0,0-.89-.44c-.7-.19-1.77.82-2.14,2.53a3.19,3.19,0,0,0,0,1.44c-.25.89-.65,1.69-1.14,1.79s-.84-.6-.68-1.61.64-2.53.88-3.51l.91-.24c.19,0,.23-.13.11-.26a.91.91,0,0,0-.86-.19,1.69,1.69,0,0,0-.21-1.43c-.1-.14-.21-.13-.29.06A17.23,17.23,0,0,0,316.3,75c-.5.15-1.12.37-1.76.56a1.76,1.76,0,0,0-.18-1.47c-.11-.14-.22-.11-.3.08s-.33,1-.53,1.7c-.35.11-.69.2-1,.27s-.26.15-.09.27a1.08,1.08,0,0,0,.89.17,29.52,29.52,0,0,0-.63,2.91C312.51,81,313.37,81.76,314.19,81.57Zm4.9-4.23c.27-1.27,1.07-2.3,1.4-2.14s.1.8-.16,1.4-.59,1.18-1.28,1C319.07,77.5,319.07,77.41,319.09,77.34Zm-5.55,2.26a33.74,33.74,0,0,1,.83-3.33c.52-.16,1.14-.37,1.74-.57-.3,1.2-.59,2.53-.7,3.26-.16,1-.64,2.14-1.18,2.25S313.37,80.6,313.54,79.6Z" transform="translate(-125.14 -38.1)"/><path class="cls-3" d="M332.69,77.36a5.26,5.26,0,0,0,2.07-2.54l0-.16a1.57,1.57,0,0,0,2,1,3.19,3.19,0,0,0,2.05-1.94,1.68,1.68,0,0,0,.08-.36c.14,1.13.71,1.5,1.48,1.33a2.81,2.81,0,0,0,1.67-1.79c.2.86.73,1.14,1.42,1A2.77,2.77,0,0,0,345.22,72a1.1,1.1,0,0,0-.08-.79c-.09-.16-.22-.11-.26.07-.24,1.06-.86,2.16-1.46,2.27s-.69-1-.51-2.28a7.3,7.3,0,0,0,1.87-4.41,1.27,1.27,0,0,0-.63-1.27c-.21-.12-.37,0-.51.19A13.4,13.4,0,0,0,342,72c-.09-.08-.19,0-.22.13-.24,1.06-.86,2.17-1.46,2.27s-.69-1-.51-2.28a7.25,7.25,0,0,0,1.87-4.41,1.28,1.28,0,0,0-.63-1.27c-.21-.12-.37-.05-.51.2a13.14,13.14,0,0,0-1.62,6.4.59.59,0,0,0,0-.08c-.08-.09-.18-.07-.21,0-.32,1-1,2.16-2,2.37-.66.13-1.15-.56-1.05-1.79a1.52,1.52,0,0,0,2.17-.94,1.6,1.6,0,0,0,0-1.76,2.23,2.23,0,0,0-.88-.45c-.7-.2-1.78.76-2.17,2.54a3.72,3.72,0,0,0-.08,1s-.07.05-.1.1a6.47,6.47,0,0,1-1.77,2.72c.21-1.35.67-3.27.81-4a1.39,1.39,0,0,0-.31-1.35c-.13-.09-.21,0-.28.14a14,14,0,0,0-.53,2,2.31,2.31,0,0,1-1.36,1.89.83.83,0,0,1-.87-.3,8.91,8.91,0,0,0,2-5,1.28,1.28,0,0,0-.62-1.26c-.19-.1-.34,0-.49.2-1.3,1.92-2.18,7.22-2.31,9.38a1.41,1.41,0,0,0,.42,1.33c.12.08.18,0,.2-.11.16-1.53.41-3,.66-4.22a1.23,1.23,0,0,0,1.09.33,1.69,1.69,0,0,0,.92-.52c-.12.7-.23,1.43-.32,2.13a4.28,4.28,0,0,0-2,2.73c-6.46,1.61-13.56,3.43-19.64,5.12.2-.8.34-1.71.46-2.55a4.86,4.86,0,0,0,1.92-2.24,1.22,1.22,0,0,0,0-.77c-.06-.11-.17-.07-.21,0a6.63,6.63,0,0,1-1.67,2.44c.21-1.32.57-3,.75-3.78a1.41,1.41,0,0,0-.3-1.38c-.14-.07-.22,0-.29.17-.26.73-.5,2-.79,3-.35,1.23-.76,2.17-1.24,2.26-.29,0-.43-.38-.34-1a12.08,12.08,0,0,1,.48-2c.26-.83.2-1.37-.19-1.68-.12-.1-.24-.08-.31.08a14.75,14.75,0,0,0-.8,3,.24.24,0,0,0-.09.16c-.24,1.06-.86,2.16-1.46,2.27s-.69-1-.51-2.28a7.25,7.25,0,0,0,1.87-4.42,1.29,1.29,0,0,0-.63-1.27c-.21-.11-.37,0-.51.2a13.43,13.43,0,0,0-1.63,6.28l0,0c-.1-.16-.22-.12-.25,0a4.49,4.49,0,0,1-.87,1.88c0-.15-.05-.29-.09-.42-.19-.81-.5-1.23-1-1.25.33-1.46.81-3.06,1.1-4a2.23,2.23,0,0,0-.06-1.94c-.09-.13-.25-.1-.31.07-.83,2.38-2.42,7.79-2.06,10.6a2.55,2.55,0,0,0,.38,1.11c-4.22,1.25-7.36,2.14-9.32,2.72l-.52.15v0l10-2.7a1.62,1.62,0,0,0,.47.33c.45.22.74.1,1-.53a1.6,1.6,0,0,0,.1-.23l3.6-1,.84-.22a1.7,1.7,0,0,0,.62,1,.54.54,0,0,0,.76.07,3.06,3.06,0,0,0,.94-1.66l19.73-5.22a1.62,1.62,0,0,0,.68,1.38.53.53,0,0,0,.75,0,3.82,3.82,0,0,0,1.05-2.09l2.31-.61,14.16-3.47.38-.27s-7.43,1.73-16.77,4C332.47,78.87,332.59,78.09,332.69,77.36Zm10.44-7.3c.44-1.78,1-3.37,1.17-3.31s0,2.19-1.31,4A5.72,5.72,0,0,1,343.13,70.06Zm-3.09.81c.44-1.79,1-3.38,1.17-3.32s0,2.19-1.31,4A5.18,5.18,0,0,1,340,70.87ZM335.73,73c.27-1.31,1.1-2.3,1.41-2.16s.1.79-.16,1.41-.6,1.21-1.29,1A1.2,1.2,0,0,1,335.73,73Zm-5.13.33a10.14,10.14,0,0,1,1.16-3.3c.2.05-.05,2.6-1.44,4.47C330.4,74.11,330.52,73.73,330.6,73.37Zm-24.79,6.39c.44-1.78,1-3.37,1.17-3.31s0,2.18-1.31,4A6,6,0,0,1,305.81,79.76Zm3.33,5.86-.78.22a4.44,4.44,0,0,1,1.25-2.33A13.37,13.37,0,0,1,309.14,85.62Zm-6.73-3.2c.07-.06.29.29.4.74a6.65,6.65,0,0,1,.12.91c-.25,0-.42-.22-.51-.61S302.3,82.5,302.41,82.42Zm-.34,1.73a.91.91,0,0,0,.88.29,8.85,8.85,0,0,1-.46,3.12l-.47.14A8.86,8.86,0,0,1,302.07,84.15Zm.14,3.74.07,0Zm2-.85-.88.27a9.14,9.14,0,0,0,.26-3.13,3,3,0,0,0,1.13-1.65v-.07c.17,1,.73,1.33,1.46,1.16a2.47,2.47,0,0,0,1.46-1.31.83.83,0,0,0,1,.67,1.86,1.86,0,0,0,1.16-1c-.06.33-.1.67-.15,1a4.26,4.26,0,0,0-2,3V86C306.46,86.38,305.31,86.72,304.23,87Zm4.22-.14c-.1-.08-.15-.32-.14-.66l.68-.17C308.76,86.66,308.55,87,308.45,86.9Zm23.26-8.84a12.46,12.46,0,0,1-.37,1.77l-.79.2A4.58,4.58,0,0,1,331.71,78.06Zm-1.16,3.39c-.13-.1-.18-.52-.08-1.08l.77-.2C331,81,330.69,81.56,330.55,81.45Z" transform="translate(-125.14 -38.1)"/><path class="cls-3" d="M334.1,71.05a.8.8,0,0,0-.15-.83c-.22-.3-.6-.33-.75-.09a.73.73,0,0,0,.17.92C333.65,71.3,334,71.28,334.1,71.05Z" transform="translate(-125.14 -38.1)"/><path class="cls-3" d="M348.14,64.56c-.12-.15-.25-.11-.31.06a30.86,30.86,0,0,0-1.31,5.75c-.08.8.15,1.17.38,1.32s.17,0,.2-.1c.27-1.52.8-3.7,1.15-5.09A2.2,2.2,0,0,0,348.14,64.56Z" transform="translate(-125.14 -38.1)"/><path class="cls-3" d="M346.27,73c.24.23.62.21.71,0a.82.82,0,0,0-.11-.8c-.25-.3-.64-.34-.77-.1A.77.77,0,0,0,346.27,73Z" transform="translate(-125.14 -38.1)"/></svg>